<svg width="48" height="48" viewBox="0 0 48 48" fill="none" xmlns="http://www.w3.org/2000/svg">
<path d="M25.0493 9.336C21.4973 9.336 18.5053 10.696 16.0733 13.416C13.6733 16.104 12.4733 19.416 12.4733 23.352C12.4733 27.288 13.8333 30.632 16.5533 33.384C19.2733 36.104 22.4733 37.464 26.1533 37.464C29.8653 37.464 32.7453 37.032 34.7933 36.168V23.352H37.0013V37.176C34.5053 38.712 30.9693 39.48 26.3933 39.48C21.8173 39.48 17.9613 37.928 14.8253 34.824C11.6893 31.72 10.1213 27.912 10.1213 23.4C10.1213 18.856 11.5293 15.048 14.3453 11.976C17.1933 8.904 20.8573 7.368 25.3373 7.368C28.9533 7.368 32.4893 7.928 35.9453 9.048L35.3693 10.872C32.0413 9.848 28.6013 9.336 25.0493 9.336Z" fill="white"/>
</svg>
