<svg width="26" height="24" viewBox="0 0 26 24" fill="none" xmlns="http://www.w3.org/2000/svg">
<path d="M23.726 12.5583C23.7125 12.5583 23.7125 12.5448 23.7125 12.5448V12.5312C22.5208 11.2854 20.8552 10.5 19 10.5C15.4115 10.5 12.5 13.4115 12.5 17C12.5 18.6656 13.1365 20.1823 14.1656 21.3333C15.3573 22.6604 17.0771 23.5 19 23.5C22.5885 23.5 25.5 20.5885 25.5 17C25.5 15.2802 24.8229 13.7229 23.726 12.5583ZM21.451 19.5323C21.2615 19.7219 20.9906 19.8302 20.7333 19.8302C20.476 19.8302 20.2188 19.7219 20.0156 19.5323L19.0135 18.5302L17.9844 19.5729C17.7813 19.7625 17.524 19.8708 17.2667 19.8708C17.1313 19.8708 17.0094 19.8437 16.8875 19.7896C16.7599 19.7436 16.6442 19.6696 16.549 19.5729C16.1427 19.1667 16.1427 18.5302 16.549 18.1375L17.5781 17.0948L16.5896 16.0927C16.1833 15.7 16.1833 15.05 16.5896 14.6573C16.9823 14.2646 17.6187 14.2646 18.025 14.6573L19.0135 15.6594L19.975 14.6979C20.3813 14.3052 21.0177 14.3052 21.4104 14.6979C21.6406 14.9281 21.7354 15.226 21.6948 15.524C21.6813 15.7542 21.5865 15.9708 21.4104 16.1333L20.449 17.0948L21.451 18.0969C21.8573 18.4896 21.8573 19.126 21.451 19.5323Z" fill="white"/>
<path d="M25 6.93615C25 8.41272 24.7625 9.77761 24.35 11.0432C24.275 11.3038 23.725 11.6613 23.5 11.5C22.1284 10.4951 20.7047 9.67259 19 9.67835C14.6625 9.67835 11.725 13.1944 11.725 17.5C11.725 19 12.5 20 12.5 21C12.5 21.5 12.1 22.1113 11.725 21.9748C8.7125 20.9574 2.625 17.2473 0.65 11.0432C0.2375 9.77761 0 8.41272 0 6.93615C0 3.10203 3.1125 0 6.95 0C9.2125 0 11.2375 1.09192 12.5 2.76702C13.1448 1.90938 13.9822 1.21276 14.9456 0.732446C15.909 0.252131 16.9719 0.00134697 18.05 0C21.8875 0 25 3.10203 25 6.93615Z" fill="white"/>
</svg>
