<svg width="44" height="44" viewBox="0 0 44 44" fill="none" xmlns="http://www.w3.org/2000/svg">
<g filter="url(#filter0_f_190_675)">
<path d="M25.5 17.1667V22.0001H29.9417C30.2834 22.0001 30.4542 22.3334 30.4542 22.6667L29.7709 25.8334C29.7709 26.0001 29.4292 26.1667 29.2584 26.1667H25.5V38.3334H20.375V26.3334H17.4709C17.1292 26.3334 16.9584 26.1667 16.9584 25.8334V22.6667C16.9584 22.3334 17.1292 22.1667 17.4709 22.1667H20.375V16.6667C20.375 13.8334 22.5959 11.6667 25.5 11.6667H30.1125C30.4542 11.6667 30.625 11.8334 30.625 12.1667V16.1667C30.625 16.5001 30.4542 16.6667 30.1125 16.6667H26.0125C25.6709 16.6667 25.5 16.8334 25.5 17.1667V17.1667Z" stroke="#5B6BF9" stroke-width="1.5" stroke-miterlimit="10" stroke-linecap="round"/>
<path d="M27.2083 38.3333H16.9583C8.41667 38.3333 5 35 5 26.6667V16.6667C5 8.33333 8.41667 5 16.9583 5H27.2083C35.75 5 39.1667 8.33333 39.1667 16.6667V26.6667C39.1667 35 35.75 38.3333 27.2083 38.3333Z" stroke="#5B6BF9" stroke-width="1.5" stroke-linecap="round" stroke-linejoin="round"/>
</g>
<g filter="url(#filter1_f_190_675)">
<path d="M25.5 17.1667V22.0001H29.9417C30.2834 22.0001 30.4542 22.3334 30.4542 22.6667L29.7709 25.8334C29.7709 26.0001 29.4292 26.1667 29.2584 26.1667H25.5V38.3334H20.375V26.3334H17.4709C17.1292 26.3334 16.9584 26.1667 16.9584 25.8334V22.6667C16.9584 22.3334 17.1292 22.1667 17.4709 22.1667H20.375V16.6667C20.375 13.8334 22.5959 11.6667 25.5 11.6667H30.1125C30.4542 11.6667 30.625 11.8334 30.625 12.1667V16.1667C30.625 16.5001 30.4542 16.6667 30.1125 16.6667H26.0125C25.6709 16.6667 25.5 16.8334 25.5 17.1667V17.1667Z" stroke="#5B6BF9" stroke-width="1.5" stroke-miterlimit="10" stroke-linecap="round"/>
<path d="M27.2083 38.3333H16.9583C8.41667 38.3333 5 35 5 26.6667V16.6667C5 8.33333 8.41667 5 16.9583 5H27.2083C35.75 5 39.1667 8.33333 39.1667 16.6667V26.6667C39.1667 35 35.75 38.3333 27.2083 38.3333Z" stroke="#5B6BF9" stroke-width="1.5" stroke-linecap="round" stroke-linejoin="round"/>
</g>
<path d="M25.5 17.1667V22.0001H29.9417C30.2834 22.0001 30.4542 22.3334 30.4542 22.6667L29.7709 25.8334C29.7709 26.0001 29.4292 26.1667 29.2584 26.1667H25.5V38.3334H20.375V26.3334H17.4709C17.1292 26.3334 16.9584 26.1667 16.9584 25.8334V22.6667C16.9584 22.3334 17.1292 22.1667 17.4709 22.1667H20.375V16.6667C20.375 13.8334 22.5959 11.6667 25.5 11.6667H30.1125C30.4542 11.6667 30.625 11.8334 30.625 12.1667V16.1667C30.625 16.5001 30.4542 16.6667 30.1125 16.6667H26.0125C25.6709 16.6667 25.5 16.8334 25.5 17.1667V17.1667Z" stroke="#5B6BF9" stroke-width="1.5" stroke-miterlimit="10" stroke-linecap="round"/>
<path d="M27.2083 38.3333H16.9583C8.41667 38.3333 5 35 5 26.6667V16.6667C5 8.33333 8.41667 5 16.9583 5H27.2083C35.75 5 39.1667 8.33333 39.1667 16.6667V26.6667C39.1667 35 35.75 38.3333 27.2083 38.3333Z" stroke="#5B6BF9" stroke-width="1.5" stroke-linecap="round" stroke-linejoin="round"/>
<defs>
<filter id="filter0_f_190_675" x="0.25" y="0.25" width="43.6666" height="42.8335" filterUnits="userSpaceOnUse" color-interpolation-filters="sRGB">
<feFlood flood-opacity="0" result="BackgroundImageFix"/>
<feBlend mode="normal" in="SourceGraphic" in2="BackgroundImageFix" result="shape"/>
<feGaussianBlur stdDeviation="2" result="effect1_foregroundBlur_190_675"/>
</filter>
<filter id="filter1_f_190_675" x="0.25" y="0.25" width="43.6666" height="42.8335" filterUnits="userSpaceOnUse" color-interpolation-filters="sRGB">
<feFlood flood-opacity="0" result="BackgroundImageFix"/>
<feBlend mode="normal" in="SourceGraphic" in2="BackgroundImageFix" result="shape"/>
<feGaussianBlur stdDeviation="2" result="effect1_foregroundBlur_190_675"/>
</filter>
</defs>
</svg>
