<svg width="50" height="45" viewBox="0 0 50 45" fill="none" xmlns="http://www.w3.org/2000/svg">
<path d="M17.729 37.5H17.5623C14.2047 37.4735 10.8957 36.7754 7.87482 35.4562C7.31914 35.2213 6.86161 34.8325 6.56921 34.3466C6.2768 33.8608 6.16488 33.3035 6.24982 32.7562C6.34221 32.2053 6.62563 31.6947 7.05963 31.2974C7.49363 30.9 8.05601 30.6363 8.66649 30.5437C10.5386 30.3189 12.3396 29.751 13.9582 28.875C11.1481 26.8976 8.98472 24.2729 7.69736 21.279C6.41 18.2851 6.0466 15.0334 6.64566 11.8687C6.72688 11.3675 6.96642 10.8977 7.33576 10.5155C7.7051 10.1332 8.18869 9.85448 8.72899 9.71248C9.25465 9.5639 9.81721 9.55755 10.3468 9.69422C10.8765 9.83089 11.3498 10.1045 11.7082 10.4812C12.9248 11.9171 14.4538 13.1148 16.2017 14.0013C17.9496 14.8878 19.8799 15.4445 21.8748 15.6375C21.9701 13.4285 23.0249 11.3413 24.8123 9.82498C25.7048 9.0558 26.7585 8.45419 27.9119 8.05518C29.0654 7.65618 30.2955 7.46776 31.5307 7.50092C32.7658 7.53408 33.9813 7.78814 35.1063 8.24831C36.2312 8.70848 37.2432 9.36555 38.0832 10.1812C38.302 10.3554 38.5739 10.4663 38.8636 10.4998C39.1534 10.5332 39.4476 10.4875 39.7082 10.3687C40.2049 10.1579 40.758 10.0785 41.303 10.1399C41.8479 10.2012 42.3623 10.4008 42.786 10.7153C43.2097 11.0298 43.5252 11.4463 43.6959 11.9161C43.8666 12.3859 43.8853 12.8897 43.7498 13.3687C43.2693 15.1502 42.3589 16.8146 41.0832 18.2437C40.802 23.5776 38.1891 28.5952 33.8143 32.2024C29.4394 35.8096 23.6575 37.7138 17.729 37.5V37.5ZM17.729 33.75H17.8957C20.3179 33.825 22.7326 33.4665 24.9997 32.6952C27.2668 31.924 29.3413 30.7555 31.1028 29.2573C32.8644 27.7591 34.2779 25.9611 35.2616 23.9675C36.2453 21.974 36.7794 19.8245 36.8332 17.6437C36.8676 17.0461 37.1414 16.4799 37.604 16.05C38.1121 15.4711 38.5455 14.842 38.8957 14.175C38.1451 14.1763 37.4028 14.035 36.7171 13.7603C36.0314 13.4857 35.4178 13.0839 34.9165 12.5812C34.4344 12.151 33.8618 11.8117 33.2322 11.5831C32.6026 11.3545 31.9287 11.2413 31.2498 11.25C30.5642 11.234 29.8818 11.3401 29.2419 11.5621C28.6019 11.7841 28.017 12.1177 27.5207 12.5437C26.851 13.1156 26.36 13.8357 26.0968 14.632C25.8336 15.4283 25.8073 16.2729 26.0207 17.0812L26.5623 19.2187L24.1248 19.3687C21.6271 19.552 19.115 19.2445 16.7624 18.4675C14.4098 17.6905 12.2729 16.4626 10.4998 14.8687C10.4238 17.337 11.1098 19.7758 12.4817 21.9142C13.8535 24.0525 15.8575 25.8065 18.2707 26.9812L20.2498 27.9937L18.9373 29.6812C17.5179 31.3566 15.5731 32.6106 13.354 33.2812C14.7776 33.6024 16.2406 33.7599 17.7082 33.75H17.729Z" fill="#00ACEE"/>
<g filter="url(#filter0_f_200_604)">
<path d="M17.729 37.5H17.5623C14.2047 37.4735 10.8957 36.7754 7.87482 35.4562C7.31914 35.2213 6.86161 34.8325 6.56921 34.3466C6.2768 33.8608 6.16488 33.3035 6.24982 32.7562C6.34221 32.2053 6.62563 31.6947 7.05963 31.2974C7.49363 30.9 8.05601 30.6363 8.66649 30.5437C10.5386 30.3189 12.3396 29.751 13.9582 28.875C11.1481 26.8976 8.98472 24.2729 7.69736 21.279C6.41 18.2851 6.0466 15.0334 6.64566 11.8687C6.72688 11.3675 6.96642 10.8977 7.33576 10.5155C7.7051 10.1332 8.18869 9.85448 8.72899 9.71248C9.25465 9.5639 9.81721 9.55755 10.3468 9.69422C10.8765 9.83089 11.3498 10.1045 11.7082 10.4812C12.9248 11.9171 14.4538 13.1148 16.2017 14.0013C17.9496 14.8878 19.8799 15.4445 21.8748 15.6375C21.9701 13.4285 23.0249 11.3413 24.8123 9.82498C25.7048 9.0558 26.7585 8.45419 27.9119 8.05518C29.0654 7.65618 30.2955 7.46776 31.5307 7.50092C32.7658 7.53408 33.9813 7.78814 35.1063 8.24831C36.2312 8.70848 37.2432 9.36555 38.0832 10.1812C38.302 10.3554 38.5739 10.4663 38.8636 10.4998C39.1534 10.5332 39.4476 10.4875 39.7082 10.3687C40.2049 10.1579 40.758 10.0785 41.303 10.1399C41.8479 10.2012 42.3623 10.4008 42.786 10.7153C43.2097 11.0298 43.5252 11.4463 43.6959 11.9161C43.8666 12.3859 43.8853 12.8897 43.7498 13.3687C43.2693 15.1502 42.3589 16.8146 41.0832 18.2437C40.802 23.5776 38.1891 28.5952 33.8143 32.2024C29.4394 35.8096 23.6575 37.7138 17.729 37.5V37.5ZM17.729 33.75H17.8957C20.3179 33.825 22.7326 33.4665 24.9997 32.6952C27.2668 31.924 29.3413 30.7555 31.1028 29.2573C32.8644 27.7591 34.2779 25.9611 35.2616 23.9675C36.2453 21.974 36.7794 19.8245 36.8332 17.6437C36.8676 17.0461 37.1414 16.4799 37.604 16.05C38.1121 15.4711 38.5455 14.842 38.8957 14.175C38.1451 14.1763 37.4028 14.035 36.7171 13.7603C36.0314 13.4857 35.4178 13.0839 34.9165 12.5812C34.4344 12.151 33.8618 11.8117 33.2322 11.5831C32.6026 11.3545 31.9287 11.2413 31.2498 11.25C30.5642 11.234 29.8818 11.3401 29.2419 11.5621C28.6019 11.7841 28.017 12.1177 27.5207 12.5437C26.851 13.1156 26.36 13.8357 26.0968 14.632C25.8336 15.4283 25.8073 16.2729 26.0207 17.0812L26.5623 19.2187L24.1248 19.3687C21.6271 19.552 19.115 19.2445 16.7624 18.4675C14.4098 17.6905 12.2729 16.4626 10.4998 14.8687C10.4238 17.337 11.1098 19.7758 12.4817 21.9142C13.8535 24.0525 15.8575 25.8065 18.2707 26.9812L20.2498 27.9937L18.9373 29.6812C17.5179 31.3566 15.5731 32.6106 13.354 33.2812C14.7776 33.6024 16.2406 33.7599 17.7082 33.75H17.729Z" fill="#00ACEE"/>
</g>
<g filter="url(#filter1_f_200_604)">
<path d="M17.729 37.5H17.5623C14.2047 37.4735 10.8957 36.7754 7.87482 35.4562C7.31914 35.2213 6.86161 34.8325 6.56921 34.3466C6.2768 33.8608 6.16488 33.3035 6.24982 32.7562C6.34221 32.2053 6.62563 31.6947 7.05963 31.2974C7.49363 30.9 8.05601 30.6363 8.66649 30.5437C10.5386 30.3189 12.3396 29.751 13.9582 28.875C11.1481 26.8976 8.98472 24.2729 7.69736 21.279C6.41 18.2851 6.0466 15.0334 6.64566 11.8687C6.72688 11.3675 6.96642 10.8977 7.33576 10.5155C7.7051 10.1332 8.18869 9.85448 8.72899 9.71248C9.25465 9.5639 9.81721 9.55755 10.3468 9.69422C10.8765 9.83089 11.3498 10.1045 11.7082 10.4812C12.9248 11.9171 14.4538 13.1148 16.2017 14.0013C17.9496 14.8878 19.8799 15.4445 21.8748 15.6375C21.9701 13.4285 23.0249 11.3413 24.8123 9.82498C25.7048 9.0558 26.7585 8.45419 27.9119 8.05518C29.0654 7.65618 30.2955 7.46776 31.5307 7.50092C32.7658 7.53408 33.9813 7.78814 35.1063 8.24831C36.2312 8.70848 37.2432 9.36555 38.0832 10.1812C38.302 10.3554 38.5739 10.4663 38.8636 10.4998C39.1534 10.5332 39.4476 10.4875 39.7082 10.3687C40.2049 10.1579 40.758 10.0785 41.303 10.1399C41.8479 10.2012 42.3623 10.4008 42.786 10.7153C43.2097 11.0298 43.5252 11.4463 43.6959 11.9161C43.8666 12.3859 43.8853 12.8897 43.7498 13.3687C43.2693 15.1502 42.3589 16.8146 41.0832 18.2437C40.802 23.5776 38.1891 28.5952 33.8143 32.2024C29.4394 35.8096 23.6575 37.7138 17.729 37.5V37.5ZM17.729 33.75H17.8957C20.3179 33.825 22.7326 33.4665 24.9997 32.6952C27.2668 31.924 29.3413 30.7555 31.1028 29.2573C32.8644 27.7591 34.2779 25.9611 35.2616 23.9675C36.2453 21.974 36.7794 19.8245 36.8332 17.6437C36.8676 17.0461 37.1414 16.4799 37.604 16.05C38.1121 15.4711 38.5455 14.842 38.8957 14.175C38.1451 14.1763 37.4028 14.035 36.7171 13.7603C36.0314 13.4857 35.4178 13.0839 34.9165 12.5812C34.4344 12.151 33.8618 11.8117 33.2322 11.5831C32.6026 11.3545 31.9287 11.2413 31.2498 11.25C30.5642 11.234 29.8818 11.3401 29.2419 11.5621C28.6019 11.7841 28.017 12.1177 27.5207 12.5437C26.851 13.1156 26.36 13.8357 26.0968 14.632C25.8336 15.4283 25.8073 16.2729 26.0207 17.0812L26.5623 19.2187L24.1248 19.3687C21.6271 19.552 19.115 19.2445 16.7624 18.4675C14.4098 17.6905 12.2729 16.4626 10.4998 14.8687C10.4238 17.337 11.1098 19.7758 12.4817 21.9142C13.8535 24.0525 15.8575 25.8065 18.2707 26.9812L20.2498 27.9937L18.9373 29.6812C17.5179 31.3566 15.5731 32.6106 13.354 33.2812C14.7776 33.6024 16.2406 33.7599 17.7082 33.75H17.729Z" fill="#00ACEE"/>
</g>
<defs>
<filter id="filter0_f_200_604" x="2.22217" y="3.49719" width="45.6171" height="38.019" filterUnits="userSpaceOnUse" color-interpolation-filters="sRGB">
<feFlood flood-opacity="0" result="BackgroundImageFix"/>
<feBlend mode="normal" in="SourceGraphic" in2="BackgroundImageFix" result="shape"/>
<feGaussianBlur stdDeviation="2" result="effect1_foregroundBlur_200_604"/>
</filter>
<filter id="filter1_f_200_604" x="2.22217" y="3.49719" width="45.6171" height="38.019" filterUnits="userSpaceOnUse" color-interpolation-filters="sRGB">
<feFlood flood-opacity="0" result="BackgroundImageFix"/>
<feBlend mode="normal" in="SourceGraphic" in2="BackgroundImageFix" result="shape"/>
<feGaussianBlur stdDeviation="2" result="effect1_foregroundBlur_200_604"/>
</filter>
</defs>
</svg>
