<svg width="26" height="24" viewBox="0 0 26 24" fill="none" xmlns="http://www.w3.org/2000/svg">
<path d="M19 10.5C15.4115 10.5 12.5 13.4115 12.5 17C12.5 18.2188 12.8385 19.3698 13.4479 20.3448C14.0204 21.3069 14.8332 22.1037 15.8066 22.6569C16.7799 23.21 17.8804 23.5006 19 23.5C21.3698 23.5 23.4417 22.2271 24.5521 20.3448C25.1479 19.3698 25.5 18.2188 25.5 17C25.5 13.4115 22.5885 10.5 19 10.5ZM22.2229 16.1469L18.7563 19.3427C18.5667 19.5188 18.3094 19.6135 18.0656 19.6135C17.8083 19.6135 17.551 19.5188 17.3479 19.3156L15.75 17.7177C15.5611 17.5266 15.4552 17.2687 15.4552 17C15.4552 16.7313 15.5611 16.4734 15.75 16.2823C16.1427 15.8896 16.7927 15.8896 17.1854 16.2823L18.0927 17.1896L20.8417 14.6438C21.2479 14.2646 21.8979 14.2917 22.2771 14.6979C22.6563 15.1177 22.6292 15.7677 22.2229 16.1469Z" fill="white"/>
<path d="M25 6.93615C25 8.41272 24.7625 9.77761 24.35 11.0432C24.275 11.3038 23.725 11.6613 23.5 11.5C22.1284 10.4951 20.7047 9.67259 19 9.67835C14.6625 9.67835 11.725 13.1944 11.725 17.5C11.725 19 12.5 20 12.5 21C12.5 21.5 12.1 22.1113 11.725 21.9748C8.7125 20.9574 2.625 17.2473 0.65 11.0432C0.2375 9.77761 0 8.41272 0 6.93615C0 3.10203 3.1125 0 6.95 0C9.2125 0 11.2375 1.09192 12.5 2.76702C13.1448 1.90938 13.9822 1.21276 14.9456 0.732446C15.909 0.252131 16.9719 0.00134697 18.05 0C21.8875 0 25 3.10203 25 6.93615Z" fill="white"/>
</svg>
