<svg width="45" height="45" viewBox="0 0 45 45" fill="none" xmlns="http://www.w3.org/2000/svg">
<g filter="url(#filter0_f_186_591)">
<path d="M13.575 37.55C16.2 39.125 19.35 40 22.5 40C32.125 40 40 32.125 40 22.5C40 12.875 32.125 5 22.5 5C12.875 5 5 12.875 5 22.5C5 25.65 5.875 28.625 7.275 31.25L5.77 37.0355C5.69236 37.3342 5.69507 37.6481 5.77787 37.9454C5.86067 38.2426 6.02061 38.5127 6.24147 38.7283C6.46233 38.9438 6.73626 39.0971 7.03548 39.1726C7.3347 39.2481 7.64856 39.2432 7.94525 39.1582L13.575 37.55Z" stroke="#07EF1E" stroke-width="1.5" stroke-miterlimit="10" stroke-linecap="round" stroke-linejoin="round"/>
</g>
<g filter="url(#filter1_b_186_591)">
<path d="M13.575 37.55C16.2 39.125 19.35 40 22.5 40C32.125 40 40 32.125 40 22.5C40 12.875 32.125 5 22.5 5C12.875 5 5 12.875 5 22.5C5 25.65 5.875 28.625 7.275 31.25L5.77 37.0355C5.69236 37.3342 5.69507 37.6481 5.77787 37.9454C5.86067 38.2426 6.02061 38.5127 6.24147 38.7283C6.46233 38.9438 6.73626 39.0971 7.03548 39.1726C7.3347 39.2481 7.64856 39.2432 7.94525 39.1582L13.575 37.55Z" stroke="#07EF1E" stroke-width="1.5" stroke-miterlimit="10" stroke-linecap="round" stroke-linejoin="round"/>
</g>
<g filter="url(#filter2_f_186_591)">
<path d="M30 26.7973C30 27.0133 29.94 27.236 29.8117 27.452C29.6807 27.6752 29.5088 27.8815 29.3017 28.064C28.9333 28.388 28.5283 28.6213 28.0683 28.772C27.6183 28.9227 27.13 29 26.605 29C25.8383 29 25.02 28.856 24.155 28.5627C23.2405 28.2455 22.3739 27.8465 21.5717 27.3733C20.6991 26.8635 19.8757 26.3019 19.1083 25.6933C18.3491 25.0828 17.6488 24.4272 17.0133 23.732C16.4294 23.0958 15.9352 22.4099 15.54 21.6867C15.18 21 15 20.3467 15 19.724C15 19.316 15.09 18.9267 15.27 18.5667C15.45 18.2 15.7367 17.864 16.135 17.564C16.615 17.1853 17.14 17 17.6967 17C17.9067 17 18.1167 17.036 18.305 17.108C18.5 17.18 18.6717 17.288 18.8083 17.444L20.5517 19.4067C20.685 19.556 20.785 19.6947 20.8517 19.8267C20.9183 19.952 20.9567 20.0787 20.9567 20.192C20.9545 20.3432 20.8997 20.491 20.7983 20.6187C20.6826 20.7748 20.5414 20.9178 20.3783 21.044L19.8067 21.5187C19.7669 21.5498 19.7357 21.5872 19.715 21.6285C19.6944 21.6699 19.6847 21.7142 19.6867 21.7587C19.6867 21.8053 19.695 21.848 19.71 21.896C19.7317 21.944 19.755 21.98 19.77 22.016C19.9033 22.2147 20.1367 22.472 20.4683 22.784C20.8067 23.096 21.1667 23.4147 21.5567 23.732C21.9633 24.0507 22.3533 24.344 22.7517 24.6147C23.1417 24.8773 23.465 25.0573 23.72 25.1653L23.8567 25.2147C23.9165 25.2318 23.9798 25.2399 24.0433 25.2387C24.1008 25.2397 24.1579 25.231 24.211 25.2134C24.2641 25.1957 24.312 25.1693 24.3517 25.136L24.9217 24.6853C25.11 24.536 25.29 24.4227 25.4633 24.3493C25.6227 24.2681 25.8077 24.2246 25.9967 24.224C26.1544 24.2259 26.3102 24.2526 26.455 24.3027C26.62 24.356 26.7933 24.4333 26.98 24.536L29.4667 25.9467C29.6468 26.0404 29.7901 26.1731 29.88 26.3293C29.9579 26.4775 29.9987 26.6366 30 26.7973Z" stroke="#07EF1E" stroke-width="1.5" stroke-miterlimit="10"/>
</g>
<path d="M30 27.2467C30 27.5167 29.94 27.795 29.8117 28.065C29.6807 28.344 29.5088 28.6018 29.3017 28.83C28.9333 29.235 28.5283 29.5267 28.0683 29.715C27.6183 29.9033 27.13 30 26.605 30C25.8383 30 25.02 29.82 24.155 29.4533C23.2405 29.0569 22.3739 28.5581 21.5717 27.9667C20.6991 27.3293 19.8757 26.6273 19.1083 25.8667C18.3491 25.1035 17.6488 24.2839 17.0133 23.415C16.4294 22.6198 15.9352 21.7623 15.54 20.8583C15.18 20 15 19.1833 15 18.405C15 17.895 15.09 17.4083 15.27 16.9583C15.45 16.5 15.7367 16.08 16.135 15.705C16.615 15.2317 17.14 15 17.6967 15C17.9067 15 18.1167 15.045 18.305 15.135C18.5 15.225 18.6717 15.36 18.8083 15.555L20.5517 18.0083C20.685 18.195 20.785 18.3683 20.8517 18.5333C20.9183 18.69 20.9567 18.8483 20.9567 18.99C20.9545 19.179 20.8997 19.3637 20.7983 19.5233C20.6826 19.7184 20.5414 19.8972 20.3783 20.055L19.8067 20.6483C19.7669 20.6872 19.7357 20.734 19.715 20.7857C19.6944 20.8373 19.6847 20.8927 19.6867 20.9483C19.6867 21.0067 19.695 21.06 19.71 21.12C19.7317 21.18 19.755 21.225 19.77 21.27C19.9033 21.5183 20.1367 21.84 20.4683 22.23C20.8067 22.62 21.1667 23.0183 21.5567 23.415C21.9633 23.8133 22.3533 24.18 22.7517 24.5183C23.1417 24.8467 23.465 25.0717 23.72 25.2067L23.8567 25.2683C23.9165 25.2897 23.9798 25.2999 24.0433 25.2983C24.1008 25.2996 24.1579 25.2888 24.211 25.2667C24.2641 25.2446 24.312 25.2117 24.3517 25.17L24.9217 24.6067C25.11 24.42 25.29 24.2783 25.4633 24.1867C25.6227 24.0851 25.8077 24.0308 25.9967 24.03C26.1544 24.0323 26.3102 24.0657 26.455 24.1283C26.62 24.195 26.7933 24.2917 26.98 24.42L29.4667 26.1833C29.6468 26.3006 29.7901 26.4664 29.88 26.6617C29.9579 26.8469 29.9987 27.0457 30 27.2467Z" stroke="#07EF1E" stroke-width="1.5" stroke-miterlimit="10"/>
<defs>
<filter id="filter0_f_186_591" x="0.25" y="0.25" width="44.5" height="44.5" filterUnits="userSpaceOnUse" color-interpolation-filters="sRGB">
<feFlood flood-opacity="0" result="BackgroundImageFix"/>
<feBlend mode="normal" in="SourceGraphic" in2="BackgroundImageFix" result="shape"/>
<feGaussianBlur stdDeviation="2" result="effect1_foregroundBlur_186_591"/>
</filter>
<filter id="filter1_b_186_591" x="0.25" y="0.25" width="44.5" height="44.5" filterUnits="userSpaceOnUse" color-interpolation-filters="sRGB">
<feFlood flood-opacity="0" result="BackgroundImageFix"/>
<feGaussianBlur in="BackgroundImageFix" stdDeviation="2"/>
<feComposite in2="SourceAlpha" operator="in" result="effect1_backgroundBlur_186_591"/>
<feBlend mode="normal" in="SourceGraphic" in2="effect1_backgroundBlur_186_591" result="shape"/>
</filter>
<filter id="filter2_f_186_591" x="10.25" y="12.25" width="24.5" height="21.5" filterUnits="userSpaceOnUse" color-interpolation-filters="sRGB">
<feFlood flood-opacity="0" result="BackgroundImageFix"/>
<feBlend mode="normal" in="SourceGraphic" in2="BackgroundImageFix" result="shape"/>
<feGaussianBlur stdDeviation="2" result="effect1_foregroundBlur_186_591"/>
</filter>
</defs>
</svg>
