<svg width="481" height="450" viewBox="0 0 481 450" fill="none" xmlns="http://www.w3.org/2000/svg">
<g filter="url(#filter0_i_174_648)">
<path d="M378 449C374.632 449.013 371.346 447.963 368.61 446L240 352.76L111.39 446C108.642 447.993 105.332 449.06 101.938 449.048C98.5435 449.036 95.241 447.944 92.5079 445.931C89.7748 443.919 87.7526 441.089 86.7337 437.851C85.7149 434.613 85.752 431.135 86.8399 427.92L137 279.35L6.99995 190.2C4.18406 188.271 2.05879 185.492 0.934661 182.27C-0.189469 179.047 -0.253546 175.549 0.751794 172.287C1.75713 169.025 3.7792 166.171 6.52256 164.14C9.26591 162.109 12.5868 161.009 15.9999 161H176.38L224.78 12.05C225.823 8.83423 227.857 6.03133 230.591 4.04342C233.326 2.05551 236.619 0.984741 240 0.984741C243.381 0.984741 246.674 2.05551 249.409 4.04342C252.143 6.03133 254.177 8.83423 255.22 12.05L303.62 161.05H464C467.417 161.048 470.746 162.141 473.497 164.168C476.249 166.195 478.279 169.049 479.291 172.313C480.302 175.578 480.242 179.08 479.119 182.308C477.996 185.535 475.869 188.319 473.05 190.25L343 279.35L393.13 427.88C393.942 430.285 394.171 432.848 393.796 435.359C393.422 437.869 392.456 440.255 390.978 442.318C389.5 444.381 387.552 446.063 385.295 447.225C383.039 448.387 380.538 448.995 378 449Z" fill="#FFC700"/>
</g>
<defs>
<filter id="filter0_i_174_648" x="0.0419922" y="0.984741" width="479.966" height="452.063" filterUnits="userSpaceOnUse" color-interpolation-filters="sRGB">
<feFlood flood-opacity="0" result="BackgroundImageFix"/>
<feBlend mode="normal" in="SourceGraphic" in2="BackgroundImageFix" result="shape"/>
<feColorMatrix in="SourceAlpha" type="matrix" values="0 0 0 0 0 0 0 0 0 0 0 0 0 0 0 0 0 0 127 0" result="hardAlpha"/>
<feOffset dy="4"/>
<feGaussianBlur stdDeviation="2"/>
<feComposite in2="hardAlpha" operator="arithmetic" k2="-1" k3="1"/>
<feColorMatrix type="matrix" values="0 0 0 0 0 0 0 0 0 0 0 0 0 0 0 0 0 0 0.25 0"/>
<feBlend mode="normal" in2="shape" result="effect1_innerShadow_174_648"/>
</filter>
</defs>
</svg>
