<svg width="44" height="42" viewBox="0 0 44 42" fill="none" xmlns="http://www.w3.org/2000/svg">
<g filter="url(#filter0_f_190_674)">
<path d="M16.6667 36.6667H26.6667C35 36.6667 38.3333 33.5 38.3333 25.5833V16.0833C38.3333 8.16667 35 5 26.6667 5H16.6667C8.33333 5 5 8.16667 5 16.0833V25.5833C5 33.5 8.33333 36.6667 16.6667 36.6667Z" stroke="#F757E7" stroke-width="1.5" stroke-linecap="round" stroke-linejoin="round"/>
</g>
<g filter="url(#filter1_f_190_674)">
<path d="M21.6666 26.3748C22.4326 26.3748 23.1912 26.2315 23.8989 25.953C24.6066 25.6745 25.2497 25.2663 25.7914 24.7517C26.3331 24.2371 26.7627 23.6262 27.0559 22.9539C27.349 22.2815 27.4999 21.5609 27.4999 20.8332C27.4999 20.1054 27.349 19.3848 27.0559 18.7125C26.7627 18.0401 26.3331 17.4292 25.7914 16.9146C25.2497 16.4 24.6066 15.9918 23.8989 15.7133C23.1912 15.4348 22.4326 15.2915 21.6666 15.2915C20.1195 15.2915 18.6358 15.8754 17.5418 16.9146C16.4478 17.9539 15.8333 19.3634 15.8333 20.8332C15.8333 22.3029 16.4478 23.7125 17.5418 24.7517C18.6358 25.791 20.1195 26.3748 21.6666 26.3748V26.3748Z" stroke="#F757E7" stroke-width="1.5" stroke-linecap="round" stroke-linejoin="round"/>
</g>
<g filter="url(#filter2_f_190_674)">
<path d="M31.0599 12.9165H31.0799" stroke="#FF3DEC" stroke-width="2" stroke-linecap="round" stroke-linejoin="round"/>
</g>
<g filter="url(#filter3_f_190_674)">
<path d="M16.6667 36.6667H26.6667C35 36.6667 38.3333 33.5 38.3333 25.5833V16.0833C38.3333 8.16667 35 5 26.6667 5H16.6667C8.33333 5 5 8.16667 5 16.0833V25.5833C5 33.5 8.33333 36.6667 16.6667 36.6667Z" stroke="#F757E7" stroke-width="1.5" stroke-linecap="round" stroke-linejoin="round"/>
</g>
<g filter="url(#filter4_f_190_674)">
<path d="M21.6666 26.3748C22.4326 26.3748 23.1912 26.2315 23.8989 25.953C24.6066 25.6745 25.2497 25.2663 25.7914 24.7517C26.3331 24.2371 26.7627 23.6262 27.0559 22.9539C27.349 22.2815 27.4999 21.5609 27.4999 20.8332C27.4999 20.1054 27.349 19.3848 27.0559 18.7125C26.7627 18.0401 26.3331 17.4292 25.7914 16.9146C25.2497 16.4 24.6066 15.9918 23.8989 15.7133C23.1912 15.4348 22.4326 15.2915 21.6666 15.2915C20.1195 15.2915 18.6358 15.8754 17.5418 16.9146C16.4478 17.9539 15.8333 19.3634 15.8333 20.8332C15.8333 22.3029 16.4478 23.7125 17.5418 24.7517C18.6358 25.791 20.1195 26.3748 21.6666 26.3748V26.3748Z" stroke="#F757E7" stroke-width="1.5" stroke-linecap="round" stroke-linejoin="round"/>
</g>
<g filter="url(#filter5_f_190_674)">
<path d="M31.0599 12.9165H31.0799" stroke="#FF3DEC" stroke-width="2" stroke-linecap="round" stroke-linejoin="round"/>
</g>
<path d="M16.6667 36.6667H26.6667C35 36.6667 38.3333 33.5 38.3333 25.5833V16.0833C38.3333 8.16667 35 5 26.6667 5H16.6667C8.33333 5 5 8.16667 5 16.0833V25.5833C5 33.5 8.33333 36.6667 16.6667 36.6667Z" stroke="#F757E7" stroke-width="1.5" stroke-linecap="round" stroke-linejoin="round"/>
<g filter="url(#filter6_f_190_674)">
<path d="M21.6666 26.3748C22.4326 26.3748 23.1912 26.2315 23.8989 25.953C24.6066 25.6745 25.2497 25.2663 25.7914 24.7517C26.3331 24.2371 26.7627 23.6262 27.0559 22.9539C27.349 22.2815 27.4999 21.5609 27.4999 20.8332C27.4999 20.1054 27.349 19.3848 27.0559 18.7125C26.7627 18.0401 26.3331 17.4292 25.7914 16.9146C25.2497 16.4 24.6066 15.9918 23.8989 15.7133C23.1912 15.4348 22.4326 15.2915 21.6666 15.2915C20.1195 15.2915 18.6358 15.8754 17.5418 16.9146C16.4478 17.9539 15.8333 19.3634 15.8333 20.8332C15.8333 22.3029 16.4478 23.7125 17.5418 24.7517C18.6358 25.791 20.1195 26.3748 21.6666 26.3748V26.3748Z" stroke="#F757E7" stroke-width="1.5" stroke-linecap="round" stroke-linejoin="round"/>
</g>
<g filter="url(#filter7_f_190_674)">
<path d="M31.0599 12.9165H31.0799" stroke="#FF3DEC" stroke-width="2" stroke-linecap="round" stroke-linejoin="round"/>
</g>
<path d="M16.6667 36.6667H26.6667C35 36.6667 38.3333 33.5 38.3333 25.5833V16.0833C38.3333 8.16667 35 5 26.6667 5H16.6667C8.33333 5 5 8.16667 5 16.0833V25.5833C5 33.5 8.33333 36.6667 16.6667 36.6667Z" stroke="#F757E7" stroke-width="1.5" stroke-linecap="round" stroke-linejoin="round"/>
<path d="M21.6666 26.3748C22.4326 26.3748 23.1912 26.2315 23.8989 25.953C24.6066 25.6745 25.2497 25.2663 25.7914 24.7517C26.3331 24.2371 26.7627 23.6262 27.0559 22.9539C27.349 22.2815 27.4999 21.5609 27.4999 20.8332C27.4999 20.1054 27.349 19.3848 27.0559 18.7125C26.7627 18.0401 26.3331 17.4292 25.7914 16.9146C25.2497 16.4 24.6066 15.9918 23.8989 15.7133C23.1912 15.4348 22.4326 15.2915 21.6666 15.2915C20.1195 15.2915 18.6358 15.8754 17.5418 16.9146C16.4478 17.9539 15.8333 19.3634 15.8333 20.8332C15.8333 22.3029 16.4478 23.7125 17.5418 24.7517C18.6358 25.791 20.1195 26.3748 21.6666 26.3748Z" stroke="#F757E7" stroke-width="1.5" stroke-linecap="round" stroke-linejoin="round"/>
<path d="M31.0599 12.9165H31.0799" stroke="#FF3DEC" stroke-width="2" stroke-linecap="round" stroke-linejoin="round"/>
<defs>
<filter id="filter0_f_190_674" x="0.25" y="0.25" width="42.8334" height="41.1667" filterUnits="userSpaceOnUse" color-interpolation-filters="sRGB">
<feFlood flood-opacity="0" result="BackgroundImageFix"/>
<feBlend mode="normal" in="SourceGraphic" in2="BackgroundImageFix" result="shape"/>
<feGaussianBlur stdDeviation="2" result="effect1_foregroundBlur_190_674"/>
</filter>
<filter id="filter1_f_190_674" x="11.0833" y="10.5415" width="21.1666" height="20.5833" filterUnits="userSpaceOnUse" color-interpolation-filters="sRGB">
<feFlood flood-opacity="0" result="BackgroundImageFix"/>
<feBlend mode="normal" in="SourceGraphic" in2="BackgroundImageFix" result="shape"/>
<feGaussianBlur stdDeviation="2" result="effect1_foregroundBlur_190_674"/>
</filter>
<filter id="filter2_f_190_674" x="26.0599" y="7.9165" width="10.02" height="10" filterUnits="userSpaceOnUse" color-interpolation-filters="sRGB">
<feFlood flood-opacity="0" result="BackgroundImageFix"/>
<feBlend mode="normal" in="SourceGraphic" in2="BackgroundImageFix" result="shape"/>
<feGaussianBlur stdDeviation="2" result="effect1_foregroundBlur_190_674"/>
</filter>
<filter id="filter3_f_190_674" x="0.25" y="0.25" width="42.8334" height="41.1667" filterUnits="userSpaceOnUse" color-interpolation-filters="sRGB">
<feFlood flood-opacity="0" result="BackgroundImageFix"/>
<feBlend mode="normal" in="SourceGraphic" in2="BackgroundImageFix" result="shape"/>
<feGaussianBlur stdDeviation="2" result="effect1_foregroundBlur_190_674"/>
</filter>
<filter id="filter4_f_190_674" x="11.0833" y="10.5415" width="21.1666" height="20.5833" filterUnits="userSpaceOnUse" color-interpolation-filters="sRGB">
<feFlood flood-opacity="0" result="BackgroundImageFix"/>
<feBlend mode="normal" in="SourceGraphic" in2="BackgroundImageFix" result="shape"/>
<feGaussianBlur stdDeviation="2" result="effect1_foregroundBlur_190_674"/>
</filter>
<filter id="filter5_f_190_674" x="26.0599" y="7.9165" width="10.02" height="10" filterUnits="userSpaceOnUse" color-interpolation-filters="sRGB">
<feFlood flood-opacity="0" result="BackgroundImageFix"/>
<feBlend mode="normal" in="SourceGraphic" in2="BackgroundImageFix" result="shape"/>
<feGaussianBlur stdDeviation="2" result="effect1_foregroundBlur_190_674"/>
</filter>
<filter id="filter6_f_190_674" x="11.0833" y="10.5415" width="21.1666" height="20.5833" filterUnits="userSpaceOnUse" color-interpolation-filters="sRGB">
<feFlood flood-opacity="0" result="BackgroundImageFix"/>
<feBlend mode="normal" in="SourceGraphic" in2="BackgroundImageFix" result="shape"/>
<feGaussianBlur stdDeviation="2" result="effect1_foregroundBlur_190_674"/>
</filter>
<filter id="filter7_f_190_674" x="26.0599" y="7.9165" width="10.02" height="10" filterUnits="userSpaceOnUse" color-interpolation-filters="sRGB">
<feFlood flood-opacity="0" result="BackgroundImageFix"/>
<feBlend mode="normal" in="SourceGraphic" in2="BackgroundImageFix" result="shape"/>
<feGaussianBlur stdDeviation="2" result="effect1_foregroundBlur_190_674"/>
</filter>
</defs>
</svg>
