<svg width="384" height="448" viewBox="0 0 384 448" fill="none" xmlns="http://www.w3.org/2000/svg">
<path d="M48 80.0001L68 400C68.95 418.49 82.4 432 100 432H284C301.67 432 314.87 418.49 316 400L336 80.0001" stroke="white" stroke-width="32" stroke-linecap="round" stroke-linejoin="round"/>
<path d="M16 80.0001H368" stroke="white" stroke-width="32" stroke-miterlimit="10" stroke-linecap="round"/>
<path d="M128 80.0001V40.0001C127.991 36.8458 128.605 33.7208 129.808 30.8048C131.011 27.8888 132.778 25.2394 135.009 23.0089C137.239 20.7785 139.889 19.011 142.805 17.8082C145.721 16.6053 148.846 15.9909 152 16.0001H232C235.154 15.9909 238.279 16.6053 241.195 17.8082C244.111 19.011 246.761 20.7785 248.991 23.0089C251.222 25.2394 252.989 27.8888 254.192 30.8048C255.395 33.7208 256.009 36.8458 256 40.0001V80.0001M192 144V368M120 144L128 368M264 144L256 368" stroke="white" stroke-width="32" stroke-linecap="round" stroke-linejoin="round"/>
</svg>
