<svg width="512" height="512" viewBox="0 0 512 512" fill="none" xmlns="http://www.w3.org/2000/svg">
<path d="M393.958 480.015C390.59 480.028 387.304 478.979 384.568 477.015L255.958 383.775L127.348 477.015C124.6 479.008 121.29 480.076 117.896 480.063C114.501 480.051 111.199 478.959 108.466 476.947C105.733 474.934 103.711 472.104 102.692 468.866C101.673 465.628 101.71 462.151 102.798 458.935L152.958 310.365L22.958 221.215C20.1421 219.286 18.0168 216.508 16.8927 213.285C15.7685 210.062 15.7045 206.564 16.7098 203.302C17.7151 200.041 19.7372 197.186 22.4806 195.155C25.2239 193.124 28.5448 192.024 31.958 192.015H192.338L240.738 43.0653C241.781 39.8495 243.815 37.0466 246.549 35.0587C249.284 33.0708 252.577 32 255.958 32C259.339 32 262.632 33.0708 265.367 35.0587C268.101 37.0466 270.135 39.8495 271.178 43.0653L319.578 192.065H479.958C483.375 192.064 486.704 193.156 489.455 195.183C492.207 197.21 494.237 200.064 495.249 203.329C496.26 206.593 496.2 210.095 495.077 213.323C493.954 216.551 491.827 219.334 489.008 221.265L358.958 310.365L409.088 458.895C409.9 461.3 410.129 463.863 409.754 466.374C409.38 468.884 408.414 471.27 406.936 473.333C405.458 475.397 403.51 477.079 401.253 478.24C398.997 479.402 396.496 480.011 393.958 480.015Z" fill="#D9D9D9"/>
</svg>
