<svg width="73" height="73" viewBox="0 0 73 73" fill="none" xmlns="http://www.w3.org/2000/svg">
<path d="M46.7479 42.2679H44.3891L43.5531 41.4617C47.1361 37.2817 48.9872 31.5788 47.9721 25.5177C46.5688 17.2172 39.6418 10.5888 31.2816 9.57364C18.6517 8.02104 8.02238 18.6504 9.57498 31.2802C10.5901 39.6404 17.2186 46.5674 25.519 47.9707C31.5802 48.9859 37.283 47.1347 41.4631 43.5518L42.2692 44.3878V46.7466L54.9588 59.4361C56.183 60.6603 58.1834 60.6603 59.4076 59.4361C60.6318 58.2119 60.6318 56.2115 59.4076 54.9873L46.7479 42.2679ZM28.8332 42.2679C21.3987 42.2679 15.3972 36.2665 15.3972 28.8319C15.3972 21.3973 21.3987 15.3959 28.8332 15.3959C36.2678 15.3959 42.2692 21.3973 42.2692 28.8319C42.2692 36.2665 36.2678 42.2679 28.8332 42.2679Z" fill="white"/>
</svg>
